<svg xmlns="http://www.w3.org/2000/svg" xmlns:xlink="http://www.w3.org/1999/xlink" version="1.1" id="Layer_1" x="0px" y="0px" viewBox="0 0 473.935 473.935" style="enable-background:new 0 0 473.935 473.935;" xml:space="preserve">
<circle style="fill:#EFC849;" cx="236.967" cy="236.967" r="236.967"/>
<path style="fill:#F5F5F5;" d="M144.396,93.788c-8.823,0-15.981,7.158-15.981,15.985v255.755c0,8.827,7.158,15.981,15.981,15.981  h183.827c8.827,0,15.981-7.154,15.981-15.981V167.812l-77.047-74.024H144.396z"/>
<path style="fill:#E1E1E1;" d="M344.207,167.812h-61.066c-8.827,0-15.981-7.154-15.981-15.981V93.788L344.207,167.812z"/>
<path style="fill:#DBF0F5;" d="M143.498,308.278l23.091-23.188c0,0,12.329-14.44,22.671-15.046  c10.335-0.614,21.504,13.725,21.504,13.725l17.059,16.999L230.58,298c0,0,10.028-11.745,18.447-12.239  c8.415-0.483,17.497,11.173,17.497,11.173l9.066,9.025c1.433-1.602,8.965-9.714,15.427-10.099c7.184-0.415,14.933,9.53,14.933,9.53  l23.169,23.064V185.469l-185.623,0.389V308.278z"/>
<path style="fill:#6CC077;" d="M305.951,305.386c0,0-7.749-9.946-14.933-9.53c-6.462,0.389-13.994,8.498-15.427,10.099l-9.066-9.025  c0,0-9.085-11.656-17.497-11.173c-8.419,0.498-18.447,12.239-18.447,12.239l-2.758,2.769l-17.059-16.999  c0,0-11.169-14.339-21.504-13.725c-10.342,0.606-22.671,15.046-22.671,15.046l-23.091,23.188v44.512c0,0.898,0.101,1.77,0.262,2.616  c0.138,0.715,0.363,1.388,0.61,2.062c1.089,2.997,3.166,5.482,5.856,7.091c2.062,1.235,4.445,1.987,7.02,1.987h158.128  c2.226,0,4.299-0.584,6.159-1.519c3.222-1.631,5.688-4.464,6.836-7.936c0.224-0.674,0.412-1.358,0.528-2.077  c0.116-0.722,0.224-1.463,0.224-2.223v-24.344L305.951,305.386z"/>
<g>
	<path style="fill:#67B8CB;" d="M247.624,253.716c0.026-0.221,0.176-0.415,0.168-0.651c-0.011-3.543-3.85-6.417-8.58-6.402   c-0.621,0-1.171,0.176-1.759,0.262c-1.418-1.878-4.011-3.199-7.106-3.188c-4.011,0.007-7.188,2.185-7.936,5.036   c-3.891,0.782-6.814,3.326-6.81,6.488c0.007,2.99,2.623,5.444,6.208,6.35c1.224,2.728,4.546,4.715,8.587,4.707   c3.663,0,6.765-1.65,8.221-3.981c0.947,0.314,1.968,0.498,3.065,0.498c4.206-0.007,7.6-2.574,7.596-5.729   C249.274,255.807,248.593,254.681,247.624,253.716z"/>
	<path style="fill:#67B8CB;" d="M287.684,261.697c-0.026-0.153-0.135-0.292-0.135-0.453c0-2.522,2.72-4.576,6.08-4.576   c0.442-0.007,0.834,0.116,1.25,0.183c1.007-1.351,2.844-2.286,5.036-2.294c2.855-0.007,5.115,1.542,5.665,3.558   c2.761,0.546,4.846,2.346,4.849,4.584c0.007,2.125-1.852,3.888-4.385,4.539c-0.853,1.938-3.222,3.368-6.092,3.375   c-2.601,0.007-4.808-1.164-5.856-2.806c-0.67,0.221-1.403,0.359-2.178,0.359c-2.99,0.007-5.407-1.804-5.411-4.049   C286.501,263.201,286.984,262.382,287.684,261.697z"/>
</g>
<g>
</g>
<g>
</g>
<g>
</g>
<g>
</g>
<g>
</g>
<g>
</g>
<g>
</g>
<g>
</g>
<g>
</g>
<g>
</g>
<g>
</g>
<g>
</g>
<g>
</g>
<g>
</g>
<g>
</g>
</svg>