<svg xmlns="http://www.w3.org/2000/svg" xmlns:xlink="http://www.w3.org/1999/xlink" version="1.1" id="Layer_1" x="0px" y="0px" viewBox="0 0 473.931 473.931" style="enable-background:new 0 0 473.931 473.931;" xml:space="preserve">
<circle style="fill:#EFC849;" cx="236.966" cy="236.966" r="236.966"/>
<path style="fill:#F5F5F5;" d="M144.398,93.787c-8.823,0-15.981,7.158-15.981,15.985v255.753c0,8.827,7.158,15.981,15.981,15.981  h183.825c8.827,0,15.981-7.154,15.981-15.981V167.81l-77.05-74.023H144.398z"/>
<path style="fill:#E1E1E1;" d="M344.205,167.81h-61.066c-8.827,0-15.981-7.154-15.981-15.981V93.787L344.205,167.81z"/>
<g>
	<path style="fill:#5C9942;" d="M185.157,210.515c0,3.012-2.44,5.455-5.455,5.455h-26.51c-3.016,0-5.455-2.443-5.455-5.455v-28.632   c0-3.016,2.44-5.455,5.455-5.455h26.51c3.016,0,5.455,2.44,5.455,5.455V210.515z"/>
	<path style="fill:#5C9942;" d="M230.994,210.515c0,3.012-2.44,5.455-5.455,5.455h-26.51c-3.016,0-5.455-2.443-5.455-5.455v-28.632   c0-3.016,2.44-5.455,5.455-5.455h26.51c3.016,0,5.455,2.44,5.455,5.455V210.515z"/>
	<path style="fill:#5C9942;" d="M277.766,210.515c0,3.012-2.44,5.455-5.455,5.455H245.8c-3.016,0-5.455-2.443-5.455-5.455v-28.632   c0-3.016,2.44-5.455,5.455-5.455h26.51c3.016,0,5.455,2.44,5.455,5.455V210.515z"/>
	<path style="fill:#5C9942;" d="M324.07,210.515c0,3.012-2.44,5.455-5.455,5.455h-26.51c-3.016,0-5.456-2.443-5.456-5.455v-28.632   c0-3.016,2.44-5.455,5.456-5.455h26.51c3.016,0,5.455,2.44,5.455,5.455V210.515z"/>
</g>
<g>
	<path style="fill:#6FBD44;" d="M185.157,259.158c0,3.012-2.44,5.452-5.455,5.452h-26.51c-3.016,0-5.455-2.44-5.455-5.452v-28.636   c0-3.016,2.44-5.455,5.455-5.455h26.51c3.016,0,5.455,2.44,5.455,5.455V259.158z"/>
	<path style="fill:#6FBD44;" d="M230.994,259.158c0,3.012-2.44,5.452-5.455,5.452h-26.51c-3.016,0-5.455-2.44-5.455-5.452v-28.636   c0-3.016,2.44-5.455,5.455-5.455h26.51c3.016,0,5.455,2.44,5.455,5.455V259.158z"/>
	<path style="fill:#6FBD44;" d="M277.766,259.158c0,3.012-2.44,5.452-5.455,5.452H245.8c-3.016,0-5.455-2.44-5.455-5.452v-28.636   c0-3.016,2.44-5.455,5.455-5.455h26.51c3.016,0,5.455,2.44,5.455,5.455V259.158z"/>
	<path style="fill:#6FBD44;" d="M324.07,259.158c0,3.012-2.44,5.452-5.455,5.452h-26.51c-3.016,0-5.456-2.44-5.456-5.452v-28.636   c0-3.016,2.44-5.455,5.456-5.455h26.51c3.016,0,5.455,2.44,5.455,5.455V259.158z"/>
	<path style="fill:#6FBD44;" d="M185.157,308.736c0,3.012-2.44,5.452-5.455,5.452h-26.51c-3.016,0-5.455-2.44-5.455-5.452v-28.632   c0-3.02,2.44-5.459,5.455-5.459h26.51c3.016,0,5.455,2.44,5.455,5.459V308.736z"/>
	<path style="fill:#6FBD44;" d="M230.994,308.736c0,3.012-2.44,5.452-5.455,5.452h-26.51c-3.016,0-5.455-2.44-5.455-5.452v-28.632   c0-3.02,2.44-5.459,5.455-5.459h26.51c3.016,0,5.455,2.44,5.455,5.459V308.736z"/>
	<path style="fill:#6FBD44;" d="M185.157,357.379c0,3.012-2.44,5.452-5.455,5.452h-26.51c-3.016,0-5.455-2.44-5.455-5.452v-28.632   c0-3.02,2.44-5.459,5.455-5.459h26.51c3.016,0,5.455,2.44,5.455,5.459V357.379z"/>
	<path style="fill:#6FBD44;" d="M230.994,357.379c0,3.012-2.44,5.452-5.455,5.452h-26.51c-3.016,0-5.455-2.44-5.455-5.452v-28.632   c0-3.02,2.44-5.459,5.455-5.459h26.51c3.016,0,5.455,2.44,5.455,5.459V357.379z"/>
</g>
<g>
	<path style="fill:#357180;" d="M256.516,314.502h-8.165c-4.067,0-7.345,3.267-7.386,7.315h-0.007v0.06   c0,0.007-0.004,0.007-0.004,0.03c0,0.007,0.004,0.015,0.004,0.03v40.639h22.952v-40.759h-0.004   C263.858,317.769,260.572,314.502,256.516,314.502z"/>
	<path style="fill:#357180;" d="M293.852,304.007v-0.086h-0.007c-0.109-3.981-3.36-7.184-7.375-7.184h-8.168   c-4.019,0-7.263,3.199-7.371,7.184h-0.037v58.656h22.956V304.25c0-0.037,0.007-0.075,0.007-0.131   C293.859,304.089,293.852,304.044,293.852,304.007z"/>
	<path style="fill:#357180;" d="M323.793,284.497c0-0.015-0.004-0.037-0.004-0.052v-0.206h-0.026   c-0.135-3.963-3.368-7.139-7.368-7.139h-8.176c-3.996,0-7.233,3.181-7.368,7.139h-0.026v78.337h22.959v-78.038   C323.789,284.523,323.793,284.508,323.793,284.497z"/>
	<rect x="240.969" y="358.199" style="fill:#357180;" width="82.805" height="4.67"/>
</g>
<g>
</g>
<g>
</g>
<g>
</g>
<g>
</g>
<g>
</g>
<g>
</g>
<g>
</g>
<g>
</g>
<g>
</g>
<g>
</g>
<g>
</g>
<g>
</g>
<g>
</g>
<g>
</g>
<g>
</g>
</svg>