<svg xmlns="http://www.w3.org/2000/svg" viewBox="0 0 27.47 31.88"><defs><style>.cls-1{fill:#1268b3;}</style></defs><g id="Layer_2" data-name="Layer 2"><g id="Layer_1-2" data-name="Layer 1"><path class="cls-1" d="M18,5.27V9.41H3.06a2,2,0,0,1-2-2A2.12,2.12,0,0,1,3.14,5.27H18m1-1H3.14A3.14,3.14,0,0,0,0,7.38H0a3.06,3.06,0,0,0,3.06,3.06H19V4.25Z"/><path class="cls-1" d="M6.93,2.21V4.74a1.75,1.75,0,0,1,.4,0A2,2,0,0,1,8,4.8V3.24H24.9V29H8V8.47a2,2,0,0,1-.63.1,1.75,1.75,0,0,1-.4,0V30h19V2.21Z"/><path class="cls-1" d="M13.78,24.87a3.26,3.26,0,0,1-3.26-3.43A3.39,3.39,0,0,1,14,18.35h5v-10A1.43,1.43,0,0,0,17.57,7H.71A.71.71,0,0,0,0,7.67V28.91a3,3,0,0,0,3,3H17.46A1.54,1.54,0,0,0,19,30.34V24.87Z"/><path class="cls-1" d="M19.23,19.23H13.76a2.28,2.28,0,0,0-2.28,2.28V22a2.28,2.28,0,0,0,2.28,2.28h5.47A2.28,2.28,0,0,0,21.51,22v-.46A2.28,2.28,0,0,0,19.23,19.23Zm-4.88,4.08a1.57,1.57,0,1,1,1.56-1.57A1.57,1.57,0,0,1,14.35,23.31Z"/><polygon class="cls-1" points="10.44 0 10.44 2.72 25.41 2.72 25.41 26.76 27.47 26.76 27.47 0 10.44 0"/></g></g></svg>