<svg xmlns="http://www.w3.org/2000/svg" width="120" height="120.836" viewBox="0 0 120 120.836">
    <g>
        <path fill="#e0e0e7" d="M0 0h28.432a28.432 28.432 0 0 1 28.432 28.432v28.432H28.432A28.432 28.432 0 0 1 0 28.432V0z" transform="translate(823.333 648.418) translate(-760.198 -648.418)"/>
        <path fill="#ffd176" d="M28.432 0a28.432 28.432 0 0 1 28.432 28.432v28.432H0V28.432A28.432 28.432 0 0 1 28.432 0z" transform="translate(823.333 648.418) translate(-823.198 -648.418)"/>
        <path fill="#b4b4c5" d="M-794.9-584.446a28.431 28.431 0 0 0-28.432 28.432 28.431 28.431 0 0 0 28.432 28.432 28.432 28.432 0 0 0 28.432-28.432v-28.432z" transform="translate(823.333 648.418)"/>
        <path fill="#ffb640" d="M-731.765-584.446a28.431 28.431 0 0 0-28.435 28.432 28.431 28.431 0 0 0 28.432 28.432 28.432 28.432 0 0 0 28.432-28.432 28.432 28.432 0 0 0-28.429-28.432z" transform="translate(823.333 648.418)"/>
    </g>
</svg>
